%
M48
M72
T01C0.0320
T02C0.0290
T03C0.0400
T04C0.0590
T05C0.0240
%
T01
X270Y377
X470Y377
X634Y244
X676Y419
X726Y494
X776Y419
X834Y244
X773Y634
X773Y732
X773Y830
X630Y759
X403Y1027
X403Y1127
X401Y1445
X401Y1632
X607Y1925
X707Y1925
X705Y1805
X801Y1632
X801Y1445
X1105Y1805
X1403Y1495
X1503Y1495
X1460Y1349
X1360Y1349
X1560Y1349
X1660Y1349
X1645Y1505
X1645Y1905
X1660Y1049
X1560Y1049
X1460Y1049
X1360Y1049
X1327Y858
X1327Y758
X1256Y222
X1656Y222
X230Y759
T02
X925Y731
X925Y631
X925Y531
X925Y431
X925Y331
X1225Y331
X1225Y431
X1225Y531
X1225Y631
X1225Y731
X1225Y831
X1225Y931
X1225Y1031
X1225Y1131
X1225Y1231
X1225Y1331
X1225Y1431
X1225Y1531
X1225Y1631
X925Y1631
X925Y1531
X925Y1431
X925Y1331
X925Y1231
X925Y1131
X925Y1031
X925Y931
X925Y831
T03
X256Y923
X256Y1023
X256Y1123
X256Y1223
X252Y1422
X252Y1522
X252Y1622
X252Y1722
X252Y1822
X252Y1922
X1284Y1908
X1462Y1908
X1661Y656
X1661Y556
X1661Y456
X1661Y356
T04
X1511Y1810
X1235Y1810
T05
X342Y1345
M30
