G75*
G70*
%OFA0B0*%
%FSLAX24Y24*%
%IPPOS*%
%LPD*%
%AMOC8*
5,1,8,0,0,1.08239X$1,22.5*
%
%ADD10C,0,0060*%
%ADD11C,0,0070*%
%ADD12C,0,0010*%
%ADD13C,0,0050*%
%ADD14C,0,0080*%
%ADD15C,0,0040*%
%ADD16R,0,0200X0,1200*%
%ADD17R,0,1200X0,0200*%
D10*
X-84537810Y-84538807D02*
X-84535810Y-84538807D01*
X-84535810Y-84534807D01*
X-84536560Y-84534807D01*
X-84536562Y-84534838D01*
X-84536568Y-84534869D01*
X-84536578Y-84534899D01*
X-84536591Y-84534927D01*
X-84536608Y-84534954D01*
X-84536628Y-84534978D01*
X-84536651Y-84535000D01*
X-84536676Y-84535018D01*
X-84536704Y-84535033D01*
X-84536733Y-84535045D01*
X-84536763Y-84535053D01*
X-84536794Y-84535057D01*
X-84536826Y-84535057D01*
X-84536857Y-84535053D01*
X-84536887Y-84535045D01*
X-84536916Y-84535033D01*
X-84536944Y-84535018D01*
X-84536969Y-84535000D01*
X-84536992Y-84534978D01*
X-84537012Y-84534954D01*
X-84537029Y-84534927D01*
X-84537042Y-84534899D01*
X-84537052Y-84534869D01*
X-84537058Y-84534838D01*
X-84537060Y-84534807D01*
X-84537810Y-84534807D01*
X-84537810Y-84538807D01*
X-84534340Y-84534289D02*
X-84530340Y-84534289D01*
X-84530340Y-84533539D01*
X-84530371Y-84533537D01*
X-84530402Y-84533531D01*
X-84530432Y-84533521D01*
X-84530460Y-84533508D01*
X-84530487Y-84533491D01*
X-84530511Y-84533471D01*
X-84530533Y-84533448D01*
X-84530551Y-84533423D01*
X-84530566Y-84533395D01*
X-84530578Y-84533366D01*
X-84530586Y-84533336D01*
X-84530590Y-84533305D01*
X-84530590Y-84533273D01*
X-84530586Y-84533242D01*
X-84530578Y-84533212D01*
X-84530566Y-84533183D01*
X-84530551Y-84533155D01*
X-84530533Y-84533130D01*
X-84530511Y-84533107D01*
X-84530487Y-84533087D01*
X-84530460Y-84533070D01*
X-84530432Y-84533057D01*
X-84530402Y-84533047D01*
X-84530371Y-84533041D01*
X-84530340Y-84533039D01*
X-84530340Y-84532289D01*
X-84534340Y-84532289D01*
X-84534340Y-84534289D01*
X-84531164Y-84536747D02*
X-84531164Y-84536905D01*
X-84530614Y-84536968D02*
X-84530614Y-84538617D01*
X-84531164Y-84538680D02*
X-84531164Y-84538838D01*
X-84525034Y-84534622D02*
X-84525034Y-84533822D01*
X-84524934Y-84533722D01*
X-84525034Y-84533622D01*
X-84525034Y-84532822D01*
X-84524934Y-84532722D01*
X-84525034Y-84532622D01*
X-84525034Y-84531822D01*
X-84524934Y-84531722D01*
X-84525034Y-84531622D01*
X-84525034Y-84530822D01*
X-84524934Y-84530722D01*
X-84524134Y-84530722D01*
X-84524034Y-84530822D01*
X-84524034Y-84531622D01*
X-84524134Y-84531722D01*
X-84524034Y-84531822D01*
X-84524034Y-84532622D01*
X-84524134Y-84532722D01*
X-84524034Y-84532822D01*
X-84524034Y-84533622D01*
X-84524134Y-84533722D01*
X-84524034Y-84533822D01*
X-84524034Y-84534622D01*
X-84524134Y-84534722D01*
X-84524934Y-84534722D01*
X-84525034Y-84534622D01*
X-84526051Y-84531188D02*
X-84527051Y-84531188D01*
X-84527051Y-84530288D01*
X-84526951Y-84530188D01*
X-84527051Y-84530088D01*
X-84527051Y-84529288D01*
X-84526951Y-84529188D01*
X-84527051Y-84529088D01*
X-84527051Y-84528288D01*
X-84526951Y-84528188D01*
X-84527051Y-84528088D01*
X-84527051Y-84527288D01*
X-84526951Y-84527188D01*
X-84527051Y-84527088D01*
X-84527051Y-84526288D01*
X-84526951Y-84526188D01*
X-84527051Y-84526088D01*
X-84527051Y-84525288D01*
X-84526951Y-84525188D01*
X-84527051Y-84525088D01*
X-84527051Y-84524288D01*
X-84526951Y-84524188D01*
X-84527051Y-84524088D01*
X-84527051Y-84523188D01*
X-84526051Y-84523188D01*
X-84526051Y-84524088D01*
X-84526151Y-84524188D01*
X-84526051Y-84524288D01*
X-84526051Y-84525088D01*
X-84526151Y-84525188D01*
X-84526051Y-84525288D01*
X-84526051Y-84526088D01*
X-84526151Y-84526188D01*
X-84526051Y-84526288D01*
X-84526051Y-84527088D01*
X-84526151Y-84527188D01*
X-84526051Y-84527288D01*
X-84526051Y-84528088D01*
X-84526151Y-84528188D01*
X-84526051Y-84528288D01*
X-84526051Y-84529088D01*
X-84526151Y-84529188D01*
X-84526051Y-84529288D01*
X-84526051Y-84530088D01*
X-84526151Y-84530188D01*
X-84526051Y-84530288D01*
X-84526051Y-84531188D01*
X-84529665Y-84528267D02*
X-84529665Y-84527517D01*
X-84529696Y-84527515D01*
X-84529727Y-84527509D01*
X-84529757Y-84527499D01*
X-84529785Y-84527486D01*
X-84529812Y-84527469D01*
X-84529836Y-84527449D01*
X-84529858Y-84527426D01*
X-84529876Y-84527401D01*
X-84529891Y-84527373D01*
X-84529903Y-84527344D01*
X-84529911Y-84527314D01*
X-84529915Y-84527283D01*
X-84529915Y-84527251D01*
X-84529911Y-84527220D01*
X-84529903Y-84527190D01*
X-84529891Y-84527161D01*
X-84529876Y-84527133D01*
X-84529858Y-84527108D01*
X-84529836Y-84527085D01*
X-84529812Y-84527065D01*
X-84529785Y-84527048D01*
X-84529757Y-84527035D01*
X-84529727Y-84527025D01*
X-84529696Y-84527019D01*
X-84529665Y-84527017D01*
X-84529665Y-84526267D01*
X-84538665Y-84526267D01*
X-84538665Y-84528267D01*
X-84529665Y-84528267D01*
X-84536714Y-84523261D02*
X-84536714Y-84522461D01*
X-84536814Y-84522361D01*
X-84537614Y-84522361D01*
X-84537714Y-84522461D01*
X-84537814Y-84522361D01*
X-84538614Y-84522361D01*
X-84538714Y-84522461D01*
X-84538714Y-84523261D01*
X-84538614Y-84523361D01*
X-84537814Y-84523361D01*
X-84537714Y-84523261D01*
X-84537614Y-84523361D01*
X-84536814Y-84523361D01*
X-84536714Y-84523261D01*
D11*
X-84529620Y-84525306D02*
X-84529620Y-84525831D01*
X-84529515Y-84525936D01*
X-84529304Y-84525936D01*
X-84529199Y-84525831D01*
X-84529199Y-84525306D01*
X-84528975Y-84525516D02*
X-84528765Y-84525306D01*
X-84528765Y-84525936D01*
X-84528975Y-84525936D02*
X-84528555Y-84525936D01*
X-84528729Y-84531447D02*
X-84528939Y-84531447D01*
X-84529044Y-84531552D01*
X-84529268Y-84531552D02*
X-84529373Y-84531447D01*
X-84529584Y-84531447D01*
X-84529689Y-84531552D01*
X-84529689Y-84531973D01*
X-84529584Y-84532078D01*
X-84529373Y-84532078D01*
X-84529268Y-84531973D01*
X-84529044Y-84531973D02*
X-84528939Y-84532078D01*
X-84528729Y-84532078D01*
X-84528624Y-84531973D01*
X-84528624Y-84531868D01*
X-84528729Y-84531762D01*
X-84528834Y-84531762D01*
X-84528729Y-84531762D02*
X-84528624Y-84531657D01*
X-84528624Y-84531552D01*
X-84528729Y-84531447D01*
X-84529908Y-84531447D02*
X-84530118Y-84531447D01*
X-84530013Y-84531447D02*
X-84530013Y-84532078D01*
X-84530118Y-84532078D02*
X-84529908Y-84532078D01*
X-84537632Y-84534408D02*
X-84538053Y-84534408D01*
X-84538277Y-84534303D02*
X-84538382Y-84534408D01*
X-84538592Y-84534408D01*
X-84538697Y-84534303D01*
X-84538697Y-84533883D01*
X-84538592Y-84533778D01*
X-84538382Y-84533778D01*
X-84538277Y-84533883D01*
X-84538053Y-84533988D02*
X-84537843Y-84533778D01*
X-84537843Y-84534408D01*
X-84538917Y-84534408D02*
X-84539127Y-84534408D01*
X-84539022Y-84534408D02*
X-84539022Y-84533778D01*
X-84539127Y-84533778D02*
X-84538917Y-84533778D01*
D12*
X-84530603Y-84536945D02*
X-84530634Y-84536984D01*
X-84530633Y-84536984D02*
X-84530685Y-84536946D01*
X-84530739Y-84536912D01*
X-84530794Y-84536881D01*
X-84530852Y-84536853D01*
X-84530911Y-84536830D01*
X-84530972Y-84536810D01*
X-84531033Y-84536793D01*
X-84531096Y-84536781D01*
X-84531159Y-84536772D01*
X-84531223Y-84536768D01*
X-84531286Y-84536767D01*
X-84531350Y-84536771D01*
X-84531414Y-84536778D01*
X-84531476Y-84536789D01*
X-84531538Y-84536804D01*
X-84531599Y-84536823D01*
X-84531659Y-84536846D01*
X-84531717Y-84536872D01*
X-84531773Y-84536902D01*
X-84531827Y-84536936D01*
X-84531880Y-84536972D01*
X-84531929Y-84537012D01*
X-84531977Y-84537055D01*
X-84532021Y-84537101D01*
X-84532063Y-84537149D01*
X-84532101Y-84537200D01*
X-84532136Y-84537254D01*
X-84532168Y-84537309D01*
X-84532196Y-84537366D01*
X-84532221Y-84537425D01*
X-84532242Y-84537485D01*
X-84532289Y-84537471D01*
X-84532290Y-84537470D01*
X-84532268Y-84537409D01*
X-84532244Y-84537349D01*
X-84532215Y-84537291D01*
X-84532183Y-84537235D01*
X-84532148Y-84537180D01*
X-84532109Y-84537128D01*
X-84532068Y-84537078D01*
X-84532023Y-84537031D01*
X-84531976Y-84536987D01*
X-84531926Y-84536945D01*
X-84531874Y-84536907D01*
X-84531820Y-84536872D01*
X-84531763Y-84536840D01*
X-84531705Y-84536812D01*
X-84531645Y-84536787D01*
X-84531584Y-84536766D01*
X-84531521Y-84536748D01*
X-84531458Y-84536735D01*
X-84531394Y-84536725D01*
X-84531329Y-84536719D01*
X-84531265Y-84536717D01*
X-84531200Y-84536719D01*
X-84531135Y-84536725D01*
X-84531071Y-84536734D01*
X-84531008Y-84536748D01*
X-84530945Y-84536765D01*
X-84530884Y-84536786D01*
X-84530824Y-84536811D01*
X-84530766Y-84536839D01*
X-84530709Y-84536871D01*
X-84530655Y-84536906D01*
X-84530602Y-84536945D01*
X-84530608Y-84536952D01*
X-84530660Y-84536914D01*
X-84530714Y-84536879D01*
X-84530770Y-84536847D01*
X-84530828Y-84536819D01*
X-84530887Y-84536795D01*
X-84530948Y-84536774D01*
X-84531010Y-84536757D01*
X-84531073Y-84536743D01*
X-84531136Y-84536734D01*
X-84531200Y-84536728D01*
X-84531265Y-84536726D01*
X-84531329Y-84536728D01*
X-84531393Y-84536734D01*
X-84531456Y-84536743D01*
X-84531519Y-84536757D01*
X-84531581Y-84536774D01*
X-84531642Y-84536795D01*
X-84531701Y-84536820D01*
X-84531759Y-84536848D01*
X-84531815Y-84536879D01*
X-84531869Y-84536914D01*
X-84531921Y-84536952D01*
X-84531970Y-84536993D01*
X-84532017Y-84537037D01*
X-84532061Y-84537084D01*
X-84532102Y-84537134D01*
X-84532140Y-84537185D01*
X-84532175Y-84537239D01*
X-84532207Y-84537295D01*
X-84532235Y-84537353D01*
X-84532260Y-84537412D01*
X-84532281Y-84537473D01*
X-84532273Y-84537476D01*
X-84532252Y-84537415D01*
X-84532227Y-84537357D01*
X-84532199Y-84537299D01*
X-84532168Y-84537244D01*
X-84532133Y-84537190D01*
X-84532095Y-84537139D01*
X-84532054Y-84537090D01*
X-84532011Y-84537044D01*
X-84531964Y-84537000D01*
X-84531915Y-84536959D01*
X-84531864Y-84536922D01*
X-84531810Y-84536887D01*
X-84531755Y-84536856D01*
X-84531698Y-84536828D01*
X-84531639Y-84536804D01*
X-84531578Y-84536783D01*
X-84531517Y-84536766D01*
X-84531455Y-84536752D01*
X-84531392Y-84536743D01*
X-84531328Y-84536737D01*
X-84531265Y-84536735D01*
X-84531201Y-84536737D01*
X-84531137Y-84536743D01*
X-84531074Y-84536752D01*
X-84531012Y-84536765D01*
X-84530951Y-84536783D01*
X-84530890Y-84536803D01*
X-84530831Y-84536828D01*
X-84530774Y-84536855D01*
X-84530719Y-84536887D01*
X-84530665Y-84536921D01*
X-84530614Y-84536959D01*
X-84530619Y-84536966D01*
X-84530670Y-84536929D01*
X-84530723Y-84536894D01*
X-84530778Y-84536863D01*
X-84530835Y-84536836D01*
X-84530894Y-84536812D01*
X-84530953Y-84536791D01*
X-84531014Y-84536774D01*
X-84531076Y-84536761D01*
X-84531138Y-84536752D01*
X-84531201Y-84536746D01*
X-84531265Y-84536744D01*
X-84531328Y-84536746D01*
X-84531391Y-84536752D01*
X-84531453Y-84536761D01*
X-84531515Y-84536774D01*
X-84531576Y-84536791D01*
X-84531635Y-84536812D01*
X-84531694Y-84536836D01*
X-84531751Y-84536864D01*
X-84531806Y-84536895D01*
X-84531859Y-84536929D01*
X-84531910Y-84536967D01*
X-84531958Y-84537007D01*
X-84532004Y-84537050D01*
X-84532048Y-84537096D01*
X-84532088Y-84537145D01*
X-84532126Y-84537195D01*
X-84532160Y-84537248D01*
X-84532191Y-84537303D01*
X-84532219Y-84537360D01*
X-84532243Y-84537419D01*
X-84532264Y-84537478D01*
X-84532255Y-84537481D01*
X-84532235Y-84537422D01*
X-84532211Y-84537364D01*
X-84532183Y-84537308D01*
X-84532152Y-84537253D01*
X-84532118Y-84537201D01*
X-84532081Y-84537150D01*
X-84532041Y-84537102D01*
X-84531998Y-84537057D01*
X-84531952Y-84537014D01*
X-84531904Y-84536974D01*
X-84531854Y-84536937D01*
X-84531801Y-84536903D01*
X-84531746Y-84536872D01*
X-84531690Y-84536844D01*
X-84531632Y-84536820D01*
X-84531573Y-84536800D01*
X-84531513Y-84536783D01*
X-84531451Y-84536770D01*
X-84531390Y-84536761D01*
X-84531327Y-84536755D01*
X-84531265Y-84536753D01*
X-84531202Y-84536755D01*
X-84531140Y-84536760D01*
X-84531078Y-84536770D01*
X-84531016Y-84536783D01*
X-84530956Y-84536800D01*
X-84530897Y-84536820D01*
X-84530839Y-84536844D01*
X-84530783Y-84536871D01*
X-84530728Y-84536902D01*
X-84530675Y-84536936D01*
X-84530625Y-84536973D01*
X-84530630Y-84536980D01*
X-84530682Y-84536942D01*
X-84530736Y-84536908D01*
X-84530792Y-84536876D01*
X-84530850Y-84536849D01*
X-84530909Y-84536825D01*
X-84530970Y-84536805D01*
X-84531032Y-84536788D01*
X-84531095Y-84536776D01*
X-84531159Y-84536767D01*
X-84531222Y-84536763D01*
X-84531287Y-84536762D01*
X-84531351Y-84536766D01*
X-84531414Y-84536773D01*
X-84531477Y-84536784D01*
X-84531540Y-84536800D01*
X-84531601Y-84536819D01*
X-84531661Y-84536841D01*
X-84531719Y-84536868D01*
X-84531776Y-84536898D01*
X-84531830Y-84536932D01*
X-84531883Y-84536968D01*
X-84531933Y-84537009D01*
X-84531980Y-84537052D01*
X-84532025Y-84537098D01*
X-84532066Y-84537146D01*
X-84532105Y-84537197D01*
X-84532140Y-84537251D01*
X-84532172Y-84537306D01*
X-84532201Y-84537364D01*
X-84532226Y-84537423D01*
X-84532247Y-84537484D01*
X-84532289Y-84538114D02*
X-84532241Y-84538099D01*
X-84532242Y-84538100D02*
X-84532221Y-84538160D01*
X-84532196Y-84538219D01*
X-84532168Y-84538276D01*
X-84532136Y-84538331D01*
X-84532101Y-84538385D01*
X-84532063Y-84538436D01*
X-84532021Y-84538484D01*
X-84531977Y-84538530D01*
X-84531929Y-84538573D01*
X-84531880Y-84538613D01*
X-84531827Y-84538649D01*
X-84531773Y-84538683D01*
X-84531717Y-84538713D01*
X-84531659Y-84538739D01*
X-84531599Y-84538762D01*
X-84531538Y-84538781D01*
X-84531476Y-84538796D01*
X-84531414Y-84538807D01*
X-84531350Y-84538814D01*
X-84531286Y-84538818D01*
X-84531223Y-84538817D01*
X-84531159Y-84538813D01*
X-84531096Y-84538804D01*
X-84531033Y-84538792D01*
X-84530972Y-84538775D01*
X-84530911Y-84538755D01*
X-84530852Y-84538732D01*
X-84530794Y-84538704D01*
X-84530739Y-84538673D01*
X-84530685Y-84538639D01*
X-84530633Y-84538601D01*
X-84530603Y-84538640D01*
X-84530602Y-84538640D01*
X-84530655Y-84538679D01*
X-84530709Y-84538714D01*
X-84530766Y-84538746D01*
X-84530824Y-84538774D01*
X-84530884Y-84538799D01*
X-84530945Y-84538820D01*
X-84531008Y-84538837D01*
X-84531071Y-84538851D01*
X-84531135Y-84538860D01*
X-84531200Y-84538866D01*
X-84531265Y-84538868D01*
X-84531329Y-84538866D01*
X-84531394Y-84538860D01*
X-84531458Y-84538850D01*
X-84531521Y-84538837D01*
X-84531584Y-84538819D01*
X-84531645Y-84538798D01*
X-84531705Y-84538773D01*
X-84531763Y-84538745D01*
X-84531820Y-84538713D01*
X-84531874Y-84538678D01*
X-84531926Y-84538640D01*
X-84531976Y-84538598D01*
X-84532023Y-84538554D01*
X-84532068Y-84538507D01*
X-84532109Y-84538457D01*
X-84532148Y-84538405D01*
X-84532183Y-84538350D01*
X-84532215Y-84538294D01*
X-84532244Y-84538236D01*
X-84532268Y-84538176D01*
X-84532290Y-84538115D01*
X-84532281Y-84538112D01*
X-84532260Y-84538173D01*
X-84532235Y-84538232D01*
X-84532207Y-84538290D01*
X-84532175Y-84538346D01*
X-84532141Y-84538400D01*
X-84532102Y-84538451D01*
X-84532061Y-84538501D01*
X-84532017Y-84538548D01*
X-84531970Y-84538592D01*
X-84531921Y-84538633D01*
X-84531869Y-84538671D01*
X-84531815Y-84538706D01*
X-84531759Y-84538737D01*
X-84531701Y-84538765D01*
X-84531642Y-84538790D01*
X-84531581Y-84538811D01*
X-84531519Y-84538828D01*
X-84531456Y-84538842D01*
X-84531393Y-84538851D01*
X-84531329Y-84538857D01*
X-84531265Y-84538859D01*
X-84531200Y-84538857D01*
X-84531136Y-84538851D01*
X-84531073Y-84538842D01*
X-84531010Y-84538828D01*
X-84530948Y-84538811D01*
X-84530887Y-84538790D01*
X-84530828Y-84538766D01*
X-84530770Y-84538738D01*
X-84530714Y-84538706D01*
X-84530660Y-84538671D01*
X-84530608Y-84538633D01*
X-84530614Y-84538626D01*
X-84530665Y-84538664D01*
X-84530719Y-84538698D01*
X-84530774Y-84538730D01*
X-84530831Y-84538757D01*
X-84530890Y-84538782D01*
X-84530951Y-84538802D01*
X-84531012Y-84538820D01*
X-84531074Y-84538833D01*
X-84531137Y-84538842D01*
X-84531201Y-84538848D01*
X-84531265Y-84538850D01*
X-84531328Y-84538848D01*
X-84531392Y-84538842D01*
X-84531455Y-84538833D01*
X-84531517Y-84538819D01*
X-84531578Y-84538802D01*
X-84531639Y-84538781D01*
X-84531698Y-84538757D01*
X-84531755Y-84538729D01*
X-84531810Y-84538698D01*
X-84531864Y-84538663D01*
X-84531915Y-84538626D01*
X-84531964Y-84538585D01*
X-84532011Y-84538541D01*
X-84532054Y-84538495D01*
X-84532095Y-84538446D01*
X-84532133Y-84538395D01*
X-84532168Y-84538341D01*
X-84532199Y-84538286D01*
X-84532227Y-84538228D01*
X-84532252Y-84538170D01*
X-84532273Y-84538109D01*
X-84532264Y-84538107D01*
X-84532243Y-84538166D01*
X-84532219Y-84538225D01*
X-84532191Y-84538282D01*
X-84532160Y-84538337D01*
X-84532126Y-84538390D01*
X-84532088Y-84538440D01*
X-84532048Y-84538489D01*
X-84532004Y-84538535D01*
X-84531958Y-84538578D01*
X-84531910Y-84538618D01*
X-84531859Y-84538656D01*
X-84531806Y-84538690D01*
X-84531751Y-84538721D01*
X-84531694Y-84538749D01*
X-84531635Y-84538773D01*
X-84531576Y-84538794D01*
X-84531515Y-84538811D01*
X-84531453Y-84538824D01*
X-84531391Y-84538833D01*
X-84531328Y-84538839D01*
X-84531265Y-84538841D01*
X-84531201Y-84538839D01*
X-84531138Y-84538833D01*
X-84531076Y-84538824D01*
X-84531014Y-84538811D01*
X-84530953Y-84538794D01*
X-84530894Y-84538773D01*
X-84530835Y-84538749D01*
X-84530778Y-84538722D01*
X-84530723Y-84538691D01*
X-84530670Y-84538657D01*
X-84530619Y-84538619D01*
X-84530625Y-84538612D01*
X-84530675Y-84538649D01*
X-84530728Y-84538683D01*
X-84530783Y-84538714D01*
X-84530839Y-84538741D01*
X-84530897Y-84538765D01*
X-84530956Y-84538785D01*
X-84531016Y-84538802D01*
X-84531078Y-84538815D01*
X-84531140Y-84538825D01*
X-84531202Y-84538830D01*
X-84531265Y-84538832D01*
X-84531327Y-84538830D01*
X-84531390Y-84538824D01*
X-84531451Y-84538815D01*
X-84531513Y-84538802D01*
X-84531573Y-84538785D01*
X-84531632Y-84538765D01*
X-84531690Y-84538741D01*
X-84531746Y-84538713D01*
X-84531801Y-84538682D01*
X-84531854Y-84538648D01*
X-84531904Y-84538611D01*
X-84531952Y-84538571D01*
X-84531998Y-84538528D01*
X-84532041Y-84538483D01*
X-84532081Y-84538435D01*
X-84532118Y-84538384D01*
X-84532152Y-84538332D01*
X-84532183Y-84538277D01*
X-84532211Y-84538221D01*
X-84532235Y-84538163D01*
X-84532255Y-84538104D01*
X-84532247Y-84538101D01*
X-84532226Y-84538162D01*
X-84532201Y-84538221D01*
X-84532172Y-84538279D01*
X-84532140Y-84538334D01*
X-84532105Y-84538388D01*
X-84532066Y-84538439D01*
X-84532025Y-84538487D01*
X-84531980Y-84538533D01*
X-84531933Y-84538576D01*
X-84531883Y-84538617D01*
X-84531830Y-84538653D01*
X-84531776Y-84538687D01*
X-84531719Y-84538717D01*
X-84531661Y-84538744D01*
X-84531601Y-84538766D01*
X-84531540Y-84538785D01*
X-84531477Y-84538801D01*
X-84531414Y-84538812D01*
X-84531351Y-84538819D01*
X-84531287Y-84538823D01*
X-84531223Y-84538822D01*
X-84531159Y-84538818D01*
X-84531095Y-84538809D01*
X-84531032Y-84538797D01*
X-84530970Y-84538780D01*
X-84530909Y-84538760D01*
X-84530850Y-84538736D01*
X-84530792Y-84538709D01*
X-84530736Y-84538677D01*
X-84530682Y-84538643D01*
X-84530630Y-84538605D01*
X-84524405Y-84521806D02*
X-84524495Y-84521806D01*
X-84524494Y-84521806D02*
X-84524496Y-84521752D01*
X-84524502Y-84521699D01*
X-84524512Y-84521646D01*
X-84524526Y-84521594D01*
X-84524543Y-84521543D01*
X-84524564Y-84521494D01*
X-84524588Y-84521446D01*
X-84524616Y-84521400D01*
X-84524647Y-84521356D01*
X-84524681Y-84521314D01*
X-84524717Y-84521275D01*
X-84524757Y-84521238D01*
X-84524799Y-84521205D01*
X-84524843Y-84521174D01*
X-84524889Y-84521147D01*
X-84524847Y-84521068D01*
X-84524798Y-84521096D01*
X-84524752Y-84521128D01*
X-84524707Y-84521163D01*
X-84524665Y-84521200D01*
X-84524626Y-84521241D01*
X-84524589Y-84521284D01*
X-84524555Y-84521329D01*
X-84524524Y-84521376D01*
X-84524497Y-84521426D01*
X-84524473Y-84521477D01*
X-84524452Y-84521529D01*
X-84524435Y-84521583D01*
X-84524422Y-84521638D01*
X-84524412Y-84521693D01*
X-84524406Y-84521750D01*
X-84524404Y-84521806D01*
X-84524413Y-84521806D01*
X-84524415Y-84521750D01*
X-84524421Y-84521695D01*
X-84524431Y-84521640D01*
X-84524444Y-84521585D01*
X-84524461Y-84521532D01*
X-84524481Y-84521480D01*
X-84524505Y-84521430D01*
X-84524532Y-84521381D01*
X-84524562Y-84521334D01*
X-84524596Y-84521289D01*
X-84524632Y-84521247D01*
X-84524671Y-84521207D01*
X-84524713Y-84521170D01*
X-84524757Y-84521135D01*
X-84524803Y-84521104D01*
X-84524851Y-84521076D01*
X-84524855Y-84521084D01*
X-84524808Y-84521112D01*
X-84524762Y-84521143D01*
X-84524719Y-84521177D01*
X-84524677Y-84521213D01*
X-84524639Y-84521253D01*
X-84524603Y-84521295D01*
X-84524570Y-84521339D01*
X-84524540Y-84521385D01*
X-84524513Y-84521434D01*
X-84524490Y-84521484D01*
X-84524469Y-84521535D01*
X-84524453Y-84521588D01*
X-84524440Y-84521641D01*
X-84524430Y-84521696D01*
X-84524424Y-84521751D01*
X-84524422Y-84521806D01*
X-84524431Y-84521806D01*
X-84524433Y-84521751D01*
X-84524439Y-84521697D01*
X-84524448Y-84521643D01*
X-84524461Y-84521590D01*
X-84524478Y-84521538D01*
X-84524498Y-84521487D01*
X-84524521Y-84521438D01*
X-84524548Y-84521390D01*
X-84524577Y-84521344D01*
X-84524610Y-84521300D01*
X-84524645Y-84521259D01*
X-84524684Y-84521220D01*
X-84524724Y-84521183D01*
X-84524767Y-84521150D01*
X-84524813Y-84521119D01*
X-84524860Y-84521092D01*
X-84524864Y-84521100D01*
X-84524817Y-84521127D01*
X-84524773Y-84521157D01*
X-84524730Y-84521190D01*
X-84524690Y-84521226D01*
X-84524652Y-84521265D01*
X-84524617Y-84521306D01*
X-84524585Y-84521349D01*
X-84524555Y-84521395D01*
X-84524529Y-84521442D01*
X-84524506Y-84521491D01*
X-84524486Y-84521541D01*
X-84524470Y-84521593D01*
X-84524457Y-84521645D01*
X-84524448Y-84521698D01*
X-84524442Y-84521752D01*
X-84524440Y-84521806D01*
X-84524449Y-84521806D01*
X-84524451Y-84521749D01*
X-84524458Y-84521692D01*
X-84524468Y-84521636D01*
X-84524483Y-84521581D01*
X-84524501Y-84521527D01*
X-84524523Y-84521475D01*
X-84524549Y-84521424D01*
X-84524578Y-84521375D01*
X-84524611Y-84521329D01*
X-84524647Y-84521284D01*
X-84524686Y-84521243D01*
X-84524728Y-84521204D01*
X-84524772Y-84521169D01*
X-84524819Y-84521136D01*
X-84524868Y-84521107D01*
X-84524872Y-84521115D01*
X-84524824Y-84521144D01*
X-84524777Y-84521176D01*
X-84524733Y-84521211D01*
X-84524692Y-84521249D01*
X-84524654Y-84521290D01*
X-84524618Y-84521334D01*
X-84524586Y-84521380D01*
X-84524557Y-84521428D01*
X-84524531Y-84521479D01*
X-84524509Y-84521531D01*
X-84524491Y-84521584D01*
X-84524477Y-84521638D01*
X-84524467Y-84521694D01*
X-84524460Y-84521750D01*
X-84524458Y-84521806D01*
X-84524467Y-84521806D01*
X-84524469Y-84521750D01*
X-84524476Y-84521695D01*
X-84524486Y-84521640D01*
X-84524500Y-84521586D01*
X-84524518Y-84521534D01*
X-84524539Y-84521482D01*
X-84524565Y-84521433D01*
X-84524593Y-84521385D01*
X-84524625Y-84521339D01*
X-84524660Y-84521296D01*
X-84524698Y-84521256D01*
X-84524739Y-84521218D01*
X-84524783Y-84521183D01*
X-84524829Y-84521152D01*
X-84524877Y-84521123D01*
X-84524881Y-84521131D01*
X-84524833Y-84521159D01*
X-84524788Y-84521190D01*
X-84524745Y-84521225D01*
X-84524705Y-84521262D01*
X-84524667Y-84521302D01*
X-84524632Y-84521345D01*
X-84524601Y-84521390D01*
X-84524572Y-84521437D01*
X-84524548Y-84521486D01*
X-84524526Y-84521537D01*
X-84524509Y-84521589D01*
X-84524495Y-84521642D01*
X-84524485Y-84521696D01*
X-84524478Y-84521751D01*
X-84524476Y-84521806D01*
X-84524485Y-84521806D01*
X-84524487Y-84521752D01*
X-84524493Y-84521698D01*
X-84524503Y-84521644D01*
X-84524517Y-84521592D01*
X-84524535Y-84521540D01*
X-84524556Y-84521490D01*
X-84524580Y-84521441D01*
X-84524608Y-84521395D01*
X-84524640Y-84521350D01*
X-84524674Y-84521308D01*
X-84524711Y-84521268D01*
X-84524751Y-84521232D01*
X-84524793Y-84521198D01*
X-84524838Y-84521167D01*
X-84524885Y-84521139D01*
X-84525672Y-84521080D02*
X-84525627Y-84521158D01*
X-84525628Y-84521158D02*
X-84525672Y-84521186D01*
X-84525714Y-84521217D01*
X-84525754Y-84521250D01*
X-84525792Y-84521286D01*
X-84525827Y-84521325D01*
X-84525859Y-84521366D01*
X-84525889Y-84521410D01*
X-84525915Y-84521455D01*
X-84525938Y-84521502D01*
X-84525958Y-84521550D01*
X-84525974Y-84521600D01*
X-84525987Y-84521650D01*
X-84525996Y-84521702D01*
X-84526002Y-84521754D01*
X-84526004Y-84521806D01*
X-84526093Y-84521807D01*
X-84526094Y-84521806D01*
X-84526092Y-84521751D01*
X-84526086Y-84521697D01*
X-84526077Y-84521642D01*
X-84526064Y-84521589D01*
X-84526048Y-84521536D01*
X-84526029Y-84521485D01*
X-84526006Y-84521435D01*
X-84525980Y-84521387D01*
X-84525951Y-84521340D01*
X-84525919Y-84521296D01*
X-84525884Y-84521253D01*
X-84525846Y-84521213D01*
X-84525806Y-84521176D01*
X-84525764Y-84521141D01*
X-84525719Y-84521109D01*
X-84525673Y-84521080D01*
X-84525668Y-84521088D01*
X-84525717Y-84521118D01*
X-84525764Y-84521152D01*
X-84525808Y-84521190D01*
X-84525850Y-84521230D01*
X-84525889Y-84521273D01*
X-84525925Y-84521319D01*
X-84525957Y-84521367D01*
X-84525986Y-84521417D01*
X-84526012Y-84521469D01*
X-84526034Y-84521522D01*
X-84526052Y-84521577D01*
X-84526066Y-84521634D01*
X-84526076Y-84521691D01*
X-84526083Y-84521748D01*
X-84526085Y-84521806D01*
X-84526076Y-84521806D01*
X-84526074Y-84521749D01*
X-84526067Y-84521692D01*
X-84526057Y-84521635D01*
X-84526043Y-84521580D01*
X-84526025Y-84521525D01*
X-84526003Y-84521472D01*
X-84525978Y-84521421D01*
X-84525949Y-84521371D01*
X-84525917Y-84521324D01*
X-84525882Y-84521279D01*
X-84525844Y-84521236D01*
X-84525802Y-84521196D01*
X-84525759Y-84521160D01*
X-84525712Y-84521126D01*
X-84525664Y-84521095D01*
X-84525659Y-84521103D01*
X-84525707Y-84521133D01*
X-84525753Y-84521167D01*
X-84525796Y-84521203D01*
X-84525837Y-84521243D01*
X-84525875Y-84521285D01*
X-84525910Y-84521329D01*
X-84525942Y-84521376D01*
X-84525970Y-84521425D01*
X-84525995Y-84521476D01*
X-84526017Y-84521529D01*
X-84526034Y-84521582D01*
X-84526048Y-84521637D01*
X-84526058Y-84521693D01*
X-84526065Y-84521749D01*
X-84526067Y-84521806D01*
X-84526058Y-84521806D01*
X-84526056Y-84521750D01*
X-84526050Y-84521694D01*
X-84526040Y-84521639D01*
X-84526026Y-84521585D01*
X-84526008Y-84521532D01*
X-84525987Y-84521480D01*
X-84525962Y-84521429D01*
X-84525934Y-84521381D01*
X-84525903Y-84521335D01*
X-84525868Y-84521290D01*
X-84525831Y-84521249D01*
X-84525790Y-84521210D01*
X-84525748Y-84521174D01*
X-84525702Y-84521141D01*
X-84525655Y-84521111D01*
X-84525650Y-84521119D01*
X-84525697Y-84521148D01*
X-84525742Y-84521181D01*
X-84525784Y-84521217D01*
X-84525824Y-84521255D01*
X-84525861Y-84521296D01*
X-84525896Y-84521340D01*
X-84525927Y-84521386D01*
X-84525954Y-84521434D01*
X-84525979Y-84521483D01*
X-84526000Y-84521535D01*
X-84526017Y-84521587D01*
X-84526031Y-84521641D01*
X-84526041Y-84521696D01*
X-84526047Y-84521751D01*
X-84526049Y-84521806D01*
X-84526040Y-84521806D01*
X-84526038Y-84521751D01*
X-84526032Y-84521697D01*
X-84526022Y-84521643D01*
X-84526008Y-84521590D01*
X-84525991Y-84521538D01*
X-84525971Y-84521487D01*
X-84525946Y-84521438D01*
X-84525919Y-84521391D01*
X-84525888Y-84521345D01*
X-84525855Y-84521302D01*
X-84525818Y-84521261D01*
X-84525778Y-84521223D01*
X-84525736Y-84521188D01*
X-84525692Y-84521156D01*
X-84525646Y-84521127D01*
X-84525641Y-84521135D01*
X-84525687Y-84521163D01*
X-84525731Y-84521195D01*
X-84525772Y-84521230D01*
X-84525811Y-84521268D01*
X-84525848Y-84521308D01*
X-84525881Y-84521350D01*
X-84525911Y-84521395D01*
X-84525939Y-84521442D01*
X-84525962Y-84521491D01*
X-84525983Y-84521541D01*
X-84526000Y-84521592D01*
X-84526013Y-84521645D01*
X-84526023Y-84521698D01*
X-84526029Y-84521752D01*
X-84526031Y-84521806D01*
X-84526022Y-84521806D01*
X-84526020Y-84521753D01*
X-84526014Y-84521699D01*
X-84526004Y-84521647D01*
X-84525991Y-84521595D01*
X-84525974Y-84521544D01*
X-84525954Y-84521494D01*
X-84525931Y-84521446D01*
X-84525904Y-84521400D01*
X-84525874Y-84521356D01*
X-84525841Y-84521314D01*
X-84525805Y-84521274D01*
X-84525766Y-84521237D01*
X-84525725Y-84521202D01*
X-84525682Y-84521171D01*
X-84525637Y-84521142D01*
X-84525632Y-84521150D01*
X-84525677Y-84521178D01*
X-84525720Y-84521209D01*
X-84525760Y-84521243D01*
X-84525798Y-84521280D01*
X-84525834Y-84521319D01*
X-84525866Y-84521361D01*
X-84525896Y-84521405D01*
X-84525923Y-84521451D01*
X-84525946Y-84521498D01*
X-84525966Y-84521547D01*
X-84525983Y-84521597D01*
X-84525996Y-84521649D01*
X-84526005Y-84521701D01*
X-84526011Y-84521753D01*
X-84526013Y-84521806D01*
X-84526093Y-84521815D02*
X-84526003Y-84521815D01*
X-84526004Y-84521816D02*
X-84526002Y-84521870D01*
X-84525996Y-84521923D01*
X-84525986Y-84521976D01*
X-84525972Y-84522028D01*
X-84525955Y-84522079D01*
X-84525934Y-84522129D01*
X-84525910Y-84522177D01*
X-84525882Y-84522223D01*
X-84525851Y-84522267D01*
X-84525817Y-84522308D01*
X-84525780Y-84522348D01*
X-84525741Y-84522384D01*
X-84525798Y-84522452D01*
X-84525799Y-84522453D01*
X-84525840Y-84522415D01*
X-84525878Y-84522375D01*
X-84525914Y-84522332D01*
X-84525947Y-84522287D01*
X-84525977Y-84522240D01*
X-84526003Y-84522192D01*
X-84526027Y-84522141D01*
X-84526047Y-84522089D01*
X-84526064Y-84522036D01*
X-84526077Y-84521982D01*
X-84526086Y-84521927D01*
X-84526092Y-84521872D01*
X-84526094Y-84521816D01*
X-84526085Y-84521816D01*
X-84526083Y-84521871D01*
X-84526077Y-84521926D01*
X-84526068Y-84521980D01*
X-84526055Y-84522034D01*
X-84526038Y-84522086D01*
X-84526019Y-84522138D01*
X-84525995Y-84522187D01*
X-84525969Y-84522236D01*
X-84525939Y-84522282D01*
X-84525907Y-84522327D01*
X-84525872Y-84522369D01*
X-84525833Y-84522409D01*
X-84525793Y-84522446D01*
X-84525787Y-84522439D01*
X-84525827Y-84522402D01*
X-84525865Y-84522363D01*
X-84525900Y-84522321D01*
X-84525932Y-84522277D01*
X-84525961Y-84522231D01*
X-84525987Y-84522183D01*
X-84526010Y-84522134D01*
X-84526030Y-84522083D01*
X-84526046Y-84522031D01*
X-84526059Y-84521978D01*
X-84526068Y-84521925D01*
X-84526074Y-84521870D01*
X-84526076Y-84521816D01*
X-84526067Y-84521816D01*
X-84526065Y-84521870D01*
X-84526059Y-84521923D01*
X-84526050Y-84521976D01*
X-84526037Y-84522029D01*
X-84526021Y-84522080D01*
X-84526002Y-84522131D01*
X-84525979Y-84522179D01*
X-84525954Y-84522227D01*
X-84525925Y-84522272D01*
X-84525893Y-84522316D01*
X-84525858Y-84522357D01*
X-84525821Y-84522396D01*
X-84525781Y-84522432D01*
X-84525775Y-84522425D01*
X-84525815Y-84522389D01*
X-84525852Y-84522351D01*
X-84525886Y-84522310D01*
X-84525917Y-84522267D01*
X-84525946Y-84522222D01*
X-84525971Y-84522175D01*
X-84525994Y-84522127D01*
X-84526013Y-84522077D01*
X-84526029Y-84522026D01*
X-84526041Y-84521975D01*
X-84526050Y-84521922D01*
X-84526056Y-84521869D01*
X-84526058Y-84521816D01*
X-84526049Y-84521816D01*
X-84526047Y-84521873D01*
X-84526040Y-84521930D01*
X-84526030Y-84521986D01*
X-84526015Y-84522041D01*
X-84525997Y-84522095D01*
X-84525975Y-84522148D01*
X-84525949Y-84522198D01*
X-84525920Y-84522247D01*
X-84525887Y-84522294D01*
X-84525851Y-84522338D01*
X-84525812Y-84522380D01*
X-84525770Y-84522418D01*
X-84525764Y-84522412D01*
X-84525805Y-84522373D01*
X-84525844Y-84522332D01*
X-84525880Y-84522289D01*
X-84525912Y-84522242D01*
X-84525941Y-84522194D01*
X-84525967Y-84522144D01*
X-84525988Y-84522092D01*
X-84526007Y-84522038D01*
X-84526021Y-84521984D01*
X-84526031Y-84521928D01*
X-84526038Y-84521872D01*
X-84526040Y-84521816D01*
X-84526031Y-84521816D01*
X-84526029Y-84521872D01*
X-84526022Y-84521927D01*
X-84526012Y-84521982D01*
X-84525998Y-84522036D01*
X-84525980Y-84522089D01*
X-84525958Y-84522140D01*
X-84525933Y-84522190D01*
X-84525904Y-84522237D01*
X-84525872Y-84522283D01*
X-84525837Y-84522326D01*
X-84525799Y-84522367D01*
X-84525758Y-84522405D01*
X-84525752Y-84522398D01*
X-84525793Y-84522360D01*
X-84525830Y-84522320D01*
X-84525865Y-84522278D01*
X-84525897Y-84522233D01*
X-84525925Y-84522185D01*
X-84525950Y-84522136D01*
X-84525972Y-84522085D01*
X-84525989Y-84522033D01*
X-84526003Y-84521980D01*
X-84526013Y-84521926D01*
X-84526020Y-84521871D01*
X-84526022Y-84521816D01*
X-84526013Y-84521816D01*
X-84526011Y-84521870D01*
X-84526005Y-84521924D01*
X-84525995Y-84521978D01*
X-84525981Y-84522031D01*
X-84525963Y-84522082D01*
X-84525942Y-84522132D01*
X-84525917Y-84522181D01*
X-84525889Y-84522228D01*
X-84525858Y-84522272D01*
X-84525824Y-84522314D01*
X-84525786Y-84522354D01*
X-84525746Y-84522391D01*
X-84524705Y-84522456D02*
X-84524762Y-84522387D01*
X-84524762Y-84522388D02*
X-84524722Y-84522351D01*
X-84524684Y-84522312D01*
X-84524650Y-84522270D01*
X-84524618Y-84522226D01*
X-84524590Y-84522179D01*
X-84524565Y-84522131D01*
X-84524544Y-84522081D01*
X-84524526Y-84522030D01*
X-84524513Y-84521977D01*
X-84524503Y-84521924D01*
X-84524496Y-84521870D01*
X-84524494Y-84521816D01*
X-84524405Y-84521815D01*
X-84524404Y-84521816D01*
X-84524406Y-84521872D01*
X-84524412Y-84521928D01*
X-84524422Y-84521983D01*
X-84524435Y-84522038D01*
X-84524452Y-84522091D01*
X-84524472Y-84522144D01*
X-84524496Y-84522195D01*
X-84524523Y-84522244D01*
X-84524554Y-84522291D01*
X-84524587Y-84522336D01*
X-84524623Y-84522379D01*
X-84524662Y-84522419D01*
X-84524704Y-84522457D01*
X-84524710Y-84522450D01*
X-84524669Y-84522413D01*
X-84524630Y-84522373D01*
X-84524594Y-84522331D01*
X-84524561Y-84522286D01*
X-84524531Y-84522239D01*
X-84524504Y-84522191D01*
X-84524481Y-84522140D01*
X-84524460Y-84522088D01*
X-84524444Y-84522035D01*
X-84524431Y-84521981D01*
X-84524421Y-84521927D01*
X-84524415Y-84521871D01*
X-84524413Y-84521816D01*
X-84524422Y-84521816D01*
X-84524424Y-84521871D01*
X-84524430Y-84521926D01*
X-84524439Y-84521980D01*
X-84524452Y-84522033D01*
X-84524469Y-84522085D01*
X-84524489Y-84522137D01*
X-84524512Y-84522186D01*
X-84524539Y-84522235D01*
X-84524568Y-84522281D01*
X-84524601Y-84522325D01*
X-84524637Y-84522367D01*
X-84524675Y-84522406D01*
X-84524716Y-84522443D01*
X-84524721Y-84522436D01*
X-84524681Y-84522400D01*
X-84524643Y-84522361D01*
X-84524608Y-84522319D01*
X-84524576Y-84522276D01*
X-84524546Y-84522230D01*
X-84524520Y-84522182D01*
X-84524497Y-84522133D01*
X-84524477Y-84522082D01*
X-84524461Y-84522031D01*
X-84524448Y-84521978D01*
X-84524439Y-84521924D01*
X-84524433Y-84521870D01*
X-84524431Y-84521816D01*
X-84524440Y-84521816D01*
X-84524442Y-84521870D01*
X-84524448Y-84521923D01*
X-84524457Y-84521976D01*
X-84524470Y-84522028D01*
X-84524486Y-84522080D01*
X-84524505Y-84522130D01*
X-84524528Y-84522178D01*
X-84524554Y-84522225D01*
X-84524583Y-84522271D01*
X-84524615Y-84522314D01*
X-84524650Y-84522355D01*
X-84524687Y-84522393D01*
X-84524727Y-84522429D01*
X-84524733Y-84522422D01*
X-84524694Y-84522387D01*
X-84524657Y-84522349D01*
X-84524622Y-84522308D01*
X-84524591Y-84522265D01*
X-84524562Y-84522221D01*
X-84524536Y-84522174D01*
X-84524514Y-84522126D01*
X-84524494Y-84522077D01*
X-84524478Y-84522026D01*
X-84524466Y-84521974D01*
X-84524457Y-84521922D01*
X-84524451Y-84521869D01*
X-84524449Y-84521816D01*
X-84524458Y-84521816D01*
X-84524460Y-84521868D01*
X-84524466Y-84521921D01*
X-84524475Y-84521972D01*
X-84524487Y-84522023D01*
X-84524503Y-84522074D01*
X-84524522Y-84522123D01*
X-84524544Y-84522170D01*
X-84524570Y-84522216D01*
X-84524598Y-84522260D01*
X-84524629Y-84522302D01*
X-84524663Y-84522343D01*
X-84524700Y-84522380D01*
X-84524739Y-84522415D01*
X-84524745Y-84522409D01*
X-84524703Y-84522371D01*
X-84524664Y-84522330D01*
X-84524628Y-84522287D01*
X-84524596Y-84522241D01*
X-84524566Y-84522193D01*
X-84524541Y-84522143D01*
X-84524519Y-84522091D01*
X-84524501Y-84522038D01*
X-84524486Y-84521983D01*
X-84524476Y-84521928D01*
X-84524469Y-84521872D01*
X-84524467Y-84521816D01*
X-84524476Y-84521816D01*
X-84524478Y-84521871D01*
X-84524485Y-84521927D01*
X-84524495Y-84521981D01*
X-84524509Y-84522035D01*
X-84524527Y-84522088D01*
X-84524549Y-84522139D01*
X-84524574Y-84522188D01*
X-84524603Y-84522236D01*
X-84524635Y-84522281D01*
X-84524671Y-84522324D01*
X-84524709Y-84522364D01*
X-84524750Y-84522402D01*
X-84524756Y-84522395D01*
X-84524715Y-84522358D01*
X-84524677Y-84522318D01*
X-84524643Y-84522276D01*
X-84524611Y-84522231D01*
X-84524582Y-84522184D01*
X-84524557Y-84522135D01*
X-84524536Y-84522084D01*
X-84524518Y-84522033D01*
X-84524504Y-84521979D01*
X-84524494Y-84521925D01*
X-84524487Y-84521871D01*
X-84524485Y-84521816D01*
X-84525636Y-84521321D02*
X-84525605Y-84521361D01*
X-84525606Y-84521360D02*
X-84525641Y-84521391D01*
X-84525674Y-84521424D01*
X-84525704Y-84521459D01*
X-84525731Y-84521498D01*
X-84525755Y-84521538D01*
X-84525775Y-84521579D01*
X-84525792Y-84521623D01*
X-84525806Y-84521668D01*
X-84525816Y-84521713D01*
X-84525822Y-84521759D01*
X-84525824Y-84521806D01*
X-84525873Y-84521806D01*
X-84525874Y-84521806D01*
X-84525872Y-84521759D01*
X-84525866Y-84521713D01*
X-84525857Y-84521668D01*
X-84525845Y-84521623D01*
X-84525829Y-84521579D01*
X-84525810Y-84521536D01*
X-84525788Y-84521495D01*
X-84525763Y-84521456D01*
X-84525736Y-84521419D01*
X-84525705Y-84521384D01*
X-84525672Y-84521351D01*
X-84525637Y-84521321D01*
X-84525631Y-84521328D01*
X-84525669Y-84521360D01*
X-84525704Y-84521396D01*
X-84525736Y-84521434D01*
X-84525765Y-84521475D01*
X-84525791Y-84521518D01*
X-84525813Y-84521563D01*
X-84525831Y-84521610D01*
X-84525846Y-84521657D01*
X-84525856Y-84521706D01*
X-84525863Y-84521756D01*
X-84525865Y-84521806D01*
X-84525856Y-84521806D01*
X-84525854Y-84521757D01*
X-84525847Y-84521708D01*
X-84525837Y-84521660D01*
X-84525823Y-84521613D01*
X-84525805Y-84521567D01*
X-84525783Y-84521522D01*
X-84525758Y-84521480D01*
X-84525729Y-84521440D01*
X-84525698Y-84521402D01*
X-84525663Y-84521367D01*
X-84525626Y-84521335D01*
X-84525620Y-84521342D01*
X-84525657Y-84521374D01*
X-84525691Y-84521408D01*
X-84525722Y-84521445D01*
X-84525750Y-84521485D01*
X-84525775Y-84521527D01*
X-84525796Y-84521570D01*
X-84525814Y-84521615D01*
X-84525828Y-84521662D01*
X-84525838Y-84521709D01*
X-84525845Y-84521757D01*
X-84525847Y-84521806D01*
X-84525838Y-84521806D01*
X-84525836Y-84521758D01*
X-84525829Y-84521711D01*
X-84525819Y-84521664D01*
X-84525806Y-84521618D01*
X-84525788Y-84521574D01*
X-84525767Y-84521531D01*
X-84525743Y-84521490D01*
X-84525715Y-84521451D01*
X-84525684Y-84521414D01*
X-84525651Y-84521380D01*
X-84525615Y-84521349D01*
X-84525609Y-84521356D01*
X-84525645Y-84521387D01*
X-84525678Y-84521420D01*
X-84525708Y-84521456D01*
X-84525735Y-84521495D01*
X-84525759Y-84521535D01*
X-84525780Y-84521577D01*
X-84525797Y-84521621D01*
X-84525811Y-84521666D01*
X-84525821Y-84521712D01*
X-84525827Y-84521759D01*
X-84525829Y-84521806D01*
X-84525873Y-84521815D02*
X-84525823Y-84521815D01*
X-84525824Y-84521816D02*
X-84525822Y-84521863D01*
X-84525816Y-84521909D01*
X-84525806Y-84521954D01*
X-84525792Y-84521999D01*
X-84525775Y-84522042D01*
X-84525755Y-84522084D01*
X-84525731Y-84522124D01*
X-84525704Y-84522163D01*
X-84525674Y-84522198D01*
X-84525641Y-84522231D01*
X-84525606Y-84522262D01*
X-84525636Y-84522301D01*
X-84525637Y-84522301D01*
X-84525672Y-84522271D01*
X-84525705Y-84522238D01*
X-84525736Y-84522203D01*
X-84525763Y-84522166D01*
X-84525788Y-84522127D01*
X-84525810Y-84522086D01*
X-84525829Y-84522043D01*
X-84525845Y-84521999D01*
X-84525857Y-84521954D01*
X-84525866Y-84521909D01*
X-84525872Y-84521862D01*
X-84525874Y-84521816D01*
X-84525865Y-84521816D01*
X-84525863Y-84521866D01*
X-84525856Y-84521916D01*
X-84525846Y-84521964D01*
X-84525831Y-84522012D01*
X-84525813Y-84522059D01*
X-84525791Y-84522104D01*
X-84525765Y-84522147D01*
X-84525736Y-84522188D01*
X-84525704Y-84522226D01*
X-84525669Y-84522262D01*
X-84525631Y-84522294D01*
X-84525626Y-84522287D01*
X-84525663Y-84522255D01*
X-84525698Y-84522220D01*
X-84525729Y-84522182D01*
X-84525758Y-84522142D01*
X-84525783Y-84522100D01*
X-84525805Y-84522055D01*
X-84525823Y-84522009D01*
X-84525837Y-84521962D01*
X-84525847Y-84521914D01*
X-84525854Y-84521865D01*
X-84525856Y-84521816D01*
X-84525847Y-84521816D01*
X-84525845Y-84521864D01*
X-84525838Y-84521913D01*
X-84525828Y-84521960D01*
X-84525814Y-84522007D01*
X-84525796Y-84522052D01*
X-84525775Y-84522095D01*
X-84525750Y-84522137D01*
X-84525722Y-84522177D01*
X-84525691Y-84522214D01*
X-84525657Y-84522248D01*
X-84525620Y-84522280D01*
X-84525615Y-84522273D01*
X-84525651Y-84522242D01*
X-84525684Y-84522208D01*
X-84525715Y-84522171D01*
X-84525743Y-84522132D01*
X-84525767Y-84522091D01*
X-84525788Y-84522048D01*
X-84525806Y-84522004D01*
X-84525819Y-84521958D01*
X-84525829Y-84521911D01*
X-84525836Y-84521864D01*
X-84525838Y-84521816D01*
X-84525829Y-84521816D01*
X-84525827Y-84521863D01*
X-84525821Y-84521910D01*
X-84525811Y-84521956D01*
X-84525797Y-84522001D01*
X-84525780Y-84522044D01*
X-84525759Y-84522087D01*
X-84525735Y-84522127D01*
X-84525708Y-84522166D01*
X-84525678Y-84522202D01*
X-84525645Y-84522235D01*
X-84525609Y-84522266D01*
X-84524625Y-84521807D02*
X-84524675Y-84521807D01*
X-84524674Y-84521806D02*
X-84524676Y-84521759D01*
X-84524683Y-84521711D01*
X-84524693Y-84521665D01*
X-84524707Y-84521619D01*
X-84524725Y-84521575D01*
X-84524746Y-84521533D01*
X-84524770Y-84521492D01*
X-84524798Y-84521454D01*
X-84524830Y-84521418D01*
X-84524863Y-84521384D01*
X-84524900Y-84521354D01*
X-84524871Y-84521315D01*
X-84524870Y-84521314D01*
X-84524833Y-84521344D01*
X-84524799Y-84521377D01*
X-84524768Y-84521412D01*
X-84524739Y-84521450D01*
X-84524713Y-84521490D01*
X-84524690Y-84521531D01*
X-84524670Y-84521575D01*
X-84524654Y-84521619D01*
X-84524641Y-84521665D01*
X-84524632Y-84521711D01*
X-84524626Y-84521759D01*
X-84524624Y-84521806D01*
X-84524633Y-84521806D01*
X-84524635Y-84521759D01*
X-84524641Y-84521713D01*
X-84524650Y-84521667D01*
X-84524663Y-84521622D01*
X-84524679Y-84521578D01*
X-84524698Y-84521536D01*
X-84524721Y-84521495D01*
X-84524746Y-84521455D01*
X-84524774Y-84521418D01*
X-84524806Y-84521383D01*
X-84524839Y-84521351D01*
X-84524875Y-84521321D01*
X-84524881Y-84521328D01*
X-84524845Y-84521358D01*
X-84524812Y-84521390D01*
X-84524781Y-84521424D01*
X-84524753Y-84521461D01*
X-84524728Y-84521499D01*
X-84524706Y-84521540D01*
X-84524687Y-84521581D01*
X-84524671Y-84521625D01*
X-84524659Y-84521669D01*
X-84524650Y-84521714D01*
X-84524644Y-84521760D01*
X-84524642Y-84521806D01*
X-84524651Y-84521806D01*
X-84524653Y-84521761D01*
X-84524659Y-84521716D01*
X-84524668Y-84521671D01*
X-84524680Y-84521628D01*
X-84524695Y-84521585D01*
X-84524714Y-84521544D01*
X-84524736Y-84521504D01*
X-84524761Y-84521466D01*
X-84524788Y-84521430D01*
X-84524819Y-84521396D01*
X-84524851Y-84521364D01*
X-84524886Y-84521336D01*
X-84524892Y-84521343D01*
X-84524857Y-84521371D01*
X-84524825Y-84521402D01*
X-84524795Y-84521436D01*
X-84524768Y-84521471D01*
X-84524744Y-84521508D01*
X-84524722Y-84521548D01*
X-84524704Y-84521588D01*
X-84524688Y-84521630D01*
X-84524676Y-84521673D01*
X-84524668Y-84521717D01*
X-84524662Y-84521761D01*
X-84524660Y-84521806D01*
X-84524669Y-84521806D01*
X-84524671Y-84521758D01*
X-84524678Y-84521711D01*
X-84524688Y-84521664D01*
X-84524702Y-84521618D01*
X-84524720Y-84521573D01*
X-84524741Y-84521530D01*
X-84524766Y-84521489D01*
X-84524795Y-84521451D01*
X-84524826Y-84521414D01*
X-84524860Y-84521381D01*
X-84524897Y-84521350D01*
X-84524882Y-84522316D02*
X-84524911Y-84522275D01*
X-84524911Y-84522276D02*
X-84524876Y-84522248D01*
X-84524843Y-84522218D01*
X-84524812Y-84522185D01*
X-84524785Y-84522150D01*
X-84524760Y-84522113D01*
X-84524738Y-84522074D01*
X-84524719Y-84522034D01*
X-84524703Y-84521992D01*
X-84524691Y-84521949D01*
X-84524682Y-84521905D01*
X-84524676Y-84521861D01*
X-84524674Y-84521816D01*
X-84524625Y-84521815D01*
X-84524624Y-84521816D01*
X-84524626Y-84521865D01*
X-84524632Y-84521913D01*
X-84524642Y-84521961D01*
X-84524656Y-84522007D01*
X-84524673Y-84522053D01*
X-84524693Y-84522097D01*
X-84524717Y-84522139D01*
X-84524744Y-84522180D01*
X-84524775Y-84522218D01*
X-84524808Y-84522254D01*
X-84524843Y-84522287D01*
X-84524882Y-84522317D01*
X-84524887Y-84522309D01*
X-84524849Y-84522280D01*
X-84524814Y-84522247D01*
X-84524781Y-84522212D01*
X-84524752Y-84522174D01*
X-84524725Y-84522135D01*
X-84524701Y-84522093D01*
X-84524681Y-84522049D01*
X-84524664Y-84522005D01*
X-84524651Y-84521958D01*
X-84524641Y-84521911D01*
X-84524635Y-84521864D01*
X-84524633Y-84521816D01*
X-84524642Y-84521816D01*
X-84524644Y-84521863D01*
X-84524650Y-84521910D01*
X-84524660Y-84521956D01*
X-84524673Y-84522002D01*
X-84524689Y-84522046D01*
X-84524709Y-84522089D01*
X-84524733Y-84522130D01*
X-84524759Y-84522169D01*
X-84524788Y-84522206D01*
X-84524820Y-84522241D01*
X-84524855Y-84522273D01*
X-84524892Y-84522302D01*
X-84524897Y-84522295D01*
X-84524861Y-84522266D01*
X-84524827Y-84522234D01*
X-84524795Y-84522200D01*
X-84524766Y-84522164D01*
X-84524740Y-84522125D01*
X-84524717Y-84522085D01*
X-84524698Y-84522042D01*
X-84524681Y-84521999D01*
X-84524668Y-84521954D01*
X-84524659Y-84521909D01*
X-84524653Y-84521862D01*
X-84524651Y-84521816D01*
X-84524660Y-84521816D01*
X-84524662Y-84521862D01*
X-84524668Y-84521907D01*
X-84524677Y-84521952D01*
X-84524690Y-84521996D01*
X-84524706Y-84522039D01*
X-84524725Y-84522081D01*
X-84524748Y-84522120D01*
X-84524773Y-84522158D01*
X-84524802Y-84522194D01*
X-84524833Y-84522228D01*
X-84524867Y-84522259D01*
X-84524903Y-84522287D01*
X-84524908Y-84522280D01*
X-84524872Y-84522252D01*
X-84524839Y-84522222D01*
X-84524809Y-84522188D01*
X-84524781Y-84522153D01*
X-84524755Y-84522116D01*
X-84524733Y-84522076D01*
X-84524714Y-84522036D01*
X-84524698Y-84521993D01*
X-84524686Y-84521950D01*
X-84524677Y-84521906D01*
X-84524671Y-84521861D01*
X-84524669Y-84521816D01*
D13*
X-84523621Y-84521541D02*
X-84523621Y-84521241D01*
X-84523621Y-84521391D02*
X-84524072Y-84521391D01*
X-84523921Y-84521541D01*
X-84523996Y-84521701D02*
X-84524072Y-84521776D01*
X-84524072Y-84522002D01*
X-84523621Y-84522002D01*
X-84523621Y-84521776D01*
X-84523696Y-84521701D01*
X-84523996Y-84521701D01*
X-84524072Y-84522162D02*
X-84524072Y-84522462D01*
X-84523621Y-84522462D01*
X-84523621Y-84522162D01*
X-84523846Y-84522312D02*
X-84523846Y-84522462D01*
X-84523621Y-84522622D02*
X-84523621Y-84522922D01*
X-84524072Y-84522922D01*
X-84525476Y-84523623D02*
X-84525476Y-84523923D01*
X-84525476Y-84523773D02*
X-84525927Y-84523773D01*
X-84525776Y-84523923D01*
X-84525802Y-84524823D02*
X-84525726Y-84524823D01*
X-84525651Y-84524898D01*
X-84525576Y-84524823D01*
X-84525501Y-84524823D01*
X-84525426Y-84524898D01*
X-84525426Y-84525048D01*
X-84525501Y-84525123D01*
X-84525651Y-84524973D02*
X-84525651Y-84524898D01*
X-84525802Y-84524823D02*
X-84525877Y-84524898D01*
X-84525877Y-84525048D01*
X-84525802Y-84525123D01*
X-84525802Y-84525283D02*
X-84525877Y-84525358D01*
X-84525877Y-84525584D01*
X-84525426Y-84525584D01*
X-84525576Y-84525584D02*
X-84525576Y-84525358D01*
X-84525651Y-84525283D01*
X-84525802Y-84525283D01*
X-84525877Y-84525744D02*
X-84525877Y-84525894D01*
X-84525877Y-84525819D02*
X-84525501Y-84525819D01*
X-84525426Y-84525894D01*
X-84525426Y-84525969D01*
X-84525501Y-84526044D01*
X-84527434Y-84526337D02*
X-84527434Y-84526488D01*
X-84527510Y-84526563D01*
X-84527660Y-84526563D02*
X-84527735Y-84526413D01*
X-84527735Y-84526337D01*
X-84527660Y-84526262D01*
X-84527510Y-84526262D01*
X-84527434Y-84526337D01*
X-84527660Y-84526563D02*
X-84527885Y-84526563D01*
X-84527885Y-84526262D01*
X-84527810Y-84526723D02*
X-84527885Y-84526798D01*
X-84527885Y-84526948D01*
X-84527810Y-84527023D01*
X-84527510Y-84527023D01*
X-84527434Y-84526948D01*
X-84527434Y-84526798D01*
X-84527510Y-84526723D01*
X-84528164Y-84527192D02*
X-84528164Y-84527392D01*
X-84529364Y-84527392D01*
X-84529364Y-84527192D01*
X-84528164Y-84527192D01*
X-84528214Y-84527542D02*
X-84528214Y-84527842D01*
X-84528364Y-84527692D02*
X-84528064Y-84527692D01*
X-84529667Y-84529875D02*
X-84529667Y-84530125D01*
X-84529667Y-84530375D01*
X-84530667Y-84530375D01*
X-84530667Y-84530125D01*
X-84530667Y-84529875D01*
X-84529667Y-84529875D01*
X-84529667Y-84530125D02*
X-84529467Y-84530125D01*
X-84529877Y-84530550D02*
X-84530027Y-84530550D01*
X-84530102Y-84530625D01*
X-84530262Y-84530625D02*
X-84530262Y-84530775D01*
X-84530337Y-84530850D01*
X-84530563Y-84530850D01*
X-84530563Y-84531000D02*
X-84530563Y-84530550D01*
X-84530337Y-84530550D01*
X-84530262Y-84530625D01*
X-84530412Y-84530850D02*
X-84530262Y-84531000D01*
X-84530102Y-84531000D02*
X-84529802Y-84530700D01*
X-84529802Y-84530625D01*
X-84529877Y-84530550D01*
X-84529802Y-84531000D02*
X-84530102Y-84531000D01*
X-84530667Y-84530125D02*
X-84530867Y-84530125D01*
X-84532472Y-84530073D02*
X-84532672Y-84530073D01*
X-84532672Y-84529823D01*
X-84533672Y-84529823D01*
X-84533672Y-84530073D01*
X-84533672Y-84530323D01*
X-84532672Y-84530323D01*
X-84532672Y-84530073D01*
X-84532958Y-84530497D02*
X-84533108Y-84530647D01*
X-84533268Y-84530572D02*
X-84533268Y-84530722D01*
X-84533343Y-84530797D01*
X-84533568Y-84530797D01*
X-84533418Y-84530797D02*
X-84533268Y-84530948D01*
X-84533108Y-84530948D02*
X-84532807Y-84530948D01*
X-84532958Y-84530948D02*
X-84532958Y-84530497D01*
X-84533268Y-84530572D02*
X-84533343Y-84530497D01*
X-84533568Y-84530497D01*
X-84533568Y-84530948D01*
X-84533672Y-84530073D02*
X-84533872Y-84530073D01*
X-84535515Y-84530058D02*
X-84535715Y-84530058D01*
X-84535715Y-84529808D01*
X-84536715Y-84529808D01*
X-84536715Y-84530058D01*
X-84536715Y-84530308D01*
X-84535715Y-84530308D01*
X-84535715Y-84530058D01*
X-84535851Y-84530483D02*
X-84536001Y-84530558D01*
X-84536151Y-84530708D01*
X-84535926Y-84530708D01*
X-84535851Y-84530783D01*
X-84535851Y-84530858D01*
X-84535926Y-84530933D01*
X-84536076Y-84530933D01*
X-84536151Y-84530858D01*
X-84536151Y-84530708D01*
X-84536311Y-84530708D02*
X-84536311Y-84530558D01*
X-84536386Y-84530483D01*
X-84536611Y-84530483D01*
X-84536611Y-84530933D01*
X-84536611Y-84530783D02*
X-84536386Y-84530783D01*
X-84536311Y-84530708D01*
X-84536461Y-84530783D02*
X-84536311Y-84530933D01*
X-84536659Y-84531182D02*
X-84536659Y-84531432D01*
X-84536659Y-84531682D01*
X-84537659Y-84531682D01*
X-84537659Y-84531432D01*
X-84537659Y-84531182D01*
X-84536659Y-84531182D01*
X-84536659Y-84531432D02*
X-84536459Y-84531432D01*
X-84536794Y-84531856D02*
X-84537095Y-84531856D01*
X-84537095Y-84532081D01*
X-84536944Y-84532006D01*
X-84536869Y-84532006D01*
X-84536794Y-84532081D01*
X-84536794Y-84532231D01*
X-84536869Y-84532307D01*
X-84537020Y-84532307D01*
X-84537095Y-84532231D01*
X-84537255Y-84532307D02*
X-84537405Y-84532156D01*
X-84537330Y-84532156D02*
X-84537255Y-84532081D01*
X-84537255Y-84531931D01*
X-84537330Y-84531856D01*
X-84537555Y-84531856D01*
X-84537555Y-84532307D01*
X-84537555Y-84532156D02*
X-84537330Y-84532156D01*
X-84537659Y-84531432D02*
X-84537859Y-84531432D01*
X-84536915Y-84530058D02*
X-84536715Y-84530058D01*
X-84537464Y-84532960D02*
X-84537614Y-84533110D01*
X-84537774Y-84533035D02*
X-84537849Y-84532960D01*
X-84537999Y-84532960D01*
X-84538074Y-84533035D01*
X-84538074Y-84533335D01*
X-84537999Y-84533410D01*
X-84537849Y-84533410D01*
X-84537774Y-84533335D01*
X-84537614Y-84533410D02*
X-84537314Y-84533410D01*
X-84537464Y-84533410D02*
X-84537464Y-84532960D01*
X-84536944Y-84533391D02*
X-84536944Y-84534591D01*
X-84536744Y-84534591D01*
X-84536744Y-84533391D01*
X-84536944Y-84533391D01*
X-84537244Y-84534391D02*
X-84537244Y-84534691D01*
X-84537394Y-84534541D02*
X-84537094Y-84534541D01*
X-84533366Y-84536500D02*
X-84533216Y-84536500D01*
X-84533291Y-84536500D02*
X-84533291Y-84536950D01*
X-84533366Y-84536950D02*
X-84533216Y-84536950D01*
X-84533059Y-84536875D02*
X-84533059Y-84536575D01*
X-84532984Y-84536500D01*
X-84532834Y-84536500D01*
X-84532759Y-84536575D01*
X-84532599Y-84536725D02*
X-84532299Y-84536725D01*
X-84532374Y-84536950D02*
X-84532374Y-84536500D01*
X-84532599Y-84536725D01*
X-84532759Y-84536875D02*
X-84532834Y-84536950D01*
X-84532984Y-84536950D01*
X-84533059Y-84536875D01*
X-84529753Y-84533222D02*
X-84528553Y-84533222D01*
X-84528553Y-84533022D01*
X-84529753Y-84533022D01*
X-84529753Y-84533222D01*
X-84529703Y-84532872D02*
X-84529703Y-84532572D01*
X-84529553Y-84532722D02*
X-84529853Y-84532722D01*
X-84528522Y-84532721D02*
X-84528447Y-84532796D01*
X-84528297Y-84532796D01*
X-84528222Y-84532721D01*
X-84528062Y-84532721D02*
X-84528062Y-84532571D01*
X-84527837Y-84532571D01*
X-84527762Y-84532646D01*
X-84527762Y-84532721D01*
X-84527837Y-84532796D01*
X-84527987Y-84532796D01*
X-84528062Y-84532721D01*
X-84528062Y-84532571D02*
X-84527912Y-84532421D01*
X-84527762Y-84532346D01*
X-84528222Y-84532421D02*
X-84528297Y-84532346D01*
X-84528447Y-84532346D01*
X-84528522Y-84532421D01*
X-84528522Y-84532721D01*
X-84525927Y-84530848D02*
X-84525852Y-84530923D01*
X-84525776Y-84530923D01*
X-84525701Y-84530848D01*
X-84525701Y-84530698D01*
X-84525626Y-84530623D01*
X-84525551Y-84530623D01*
X-84525476Y-84530698D01*
X-84525476Y-84530848D01*
X-84525551Y-84530923D01*
X-84525626Y-84530923D01*
X-84525701Y-84530848D01*
X-84525701Y-84530698D02*
X-84525776Y-84530623D01*
X-84525852Y-84530623D01*
X-84525927Y-84530698D01*
X-84525927Y-84530848D01*
X-84525559Y-84531442D02*
X-84525219Y-84531442D01*
X-84525219Y-84531329D02*
X-84525219Y-84531556D01*
X-84525445Y-84531556D02*
X-84525559Y-84531442D01*
X-84525502Y-84532329D02*
X-84525559Y-84532386D01*
X-84525559Y-84532499D01*
X-84525502Y-84532556D01*
X-84525502Y-84532329D02*
X-84525445Y-84532329D01*
X-84525219Y-84532556D01*
X-84525219Y-84532329D01*
X-84525275Y-84533329D02*
X-84525332Y-84533329D01*
X-84525389Y-84533386D01*
X-84525389Y-84533442D01*
X-84525389Y-84533386D02*
X-84525445Y-84533329D01*
X-84525502Y-84533329D01*
X-84525559Y-84533386D01*
X-84525559Y-84533499D01*
X-84525502Y-84533556D01*
X-84525275Y-84533556D02*
X-84525219Y-84533499D01*
X-84525219Y-84533386D01*
X-84525275Y-84533329D01*
X-84525389Y-84534329D02*
X-84525389Y-84534556D01*
X-84525559Y-84534386D01*
X-84525219Y-84534386D01*
X-84524765Y-84536870D02*
X-84524840Y-84536945D01*
X-84524840Y-84537246D01*
X-84524765Y-84537321D01*
X-84524615Y-84537321D01*
X-84524540Y-84537246D01*
X-84524380Y-84537246D02*
X-84524305Y-84537321D01*
X-84524155Y-84537321D01*
X-84524080Y-84537246D01*
X-84524080Y-84537171D01*
X-84524155Y-84537095D01*
X-84524230Y-84537095D01*
X-84524155Y-84537095D02*
X-84524080Y-84537020D01*
X-84524080Y-84536945D01*
X-84524155Y-84536870D01*
X-84524305Y-84536870D01*
X-84524380Y-84536945D01*
X-84524540Y-84536945D02*
X-84524615Y-84536870D01*
X-84524765Y-84536870D01*
X-84524709Y-84537537D02*
X-84524709Y-84538737D01*
X-84524509Y-84538737D01*
X-84524509Y-84537537D01*
X-84524709Y-84537537D01*
X-84525009Y-84538537D02*
X-84525009Y-84538837D01*
X-84525159Y-84538687D02*
X-84524859Y-84538687D01*
X-84527157Y-84537723D02*
X-84527457Y-84537723D01*
X-84527307Y-84537873D02*
X-84527307Y-84537573D01*
X-84527157Y-84537423D02*
X-84527157Y-84537223D01*
X-84528357Y-84537223D01*
X-84528357Y-84537423D01*
X-84527757Y-84537423D01*
X-84527157Y-84537423D01*
X-84527757Y-84537423D02*
X-84527757Y-84537673D01*
X-84529777Y-84537123D02*
X-84529769Y-84536939D01*
X-84529744Y-84536757D01*
X-84529702Y-84536578D01*
X-84529644Y-84536403D01*
X-84529571Y-84536235D01*
X-84529483Y-84536073D01*
X-84529380Y-84535921D01*
X-84529264Y-84535778D01*
X-84529136Y-84535647D01*
X-84528996Y-84535527D01*
X-84528846Y-84535421D01*
X-84528686Y-84535329D01*
X-84528519Y-84535252D01*
X-84528346Y-84535191D01*
X-84528168Y-84535145D01*
X-84527986Y-84535116D01*
X-84527803Y-84535104D01*
X-84527619Y-84535108D01*
X-84527436Y-84535129D01*
X-84527256Y-84535166D01*
X-84527081Y-84535220D01*
X-84526910Y-84535289D01*
X-84526747Y-84535374D01*
X-84526592Y-84535473D01*
X-84526447Y-84535585D01*
X-84526312Y-84535711D01*
X-84526190Y-84535848D01*
X-84526081Y-84535996D01*
X-84525985Y-84536153D01*
X-84525904Y-84536318D01*
X-84525839Y-84536490D01*
X-84525789Y-84536667D01*
X-84525756Y-84536848D01*
X-84525739Y-84537031D01*
X-84525739Y-84537215D01*
X-84525756Y-84537398D01*
X-84525789Y-84537579D01*
X-84525839Y-84537756D01*
X-84525904Y-84537928D01*
X-84525985Y-84538093D01*
X-84526081Y-84538250D01*
X-84526190Y-84538398D01*
X-84526312Y-84538535D01*
X-84526447Y-84538661D01*
X-84526592Y-84538773D01*
X-84526747Y-84538872D01*
X-84526910Y-84538957D01*
X-84527081Y-84539026D01*
X-84527256Y-84539080D01*
X-84527436Y-84539117D01*
X-84527619Y-84539138D01*
X-84527803Y-84539142D01*
X-84527986Y-84539130D01*
X-84528168Y-84539101D01*
X-84528346Y-84539055D01*
X-84528519Y-84538994D01*
X-84528686Y-84538917D01*
X-84528846Y-84538825D01*
X-84528996Y-84538719D01*
X-84529136Y-84538599D01*
X-84529264Y-84538468D01*
X-84529380Y-84538325D01*
X-84529483Y-84538173D01*
X-84529571Y-84538011D01*
X-84529644Y-84537843D01*
X-84529702Y-84537668D01*
X-84529744Y-84537489D01*
X-84529769Y-84537307D01*
X-84529777Y-84537123D01*
X-84529255Y-84536527D02*
X-84529180Y-84536602D01*
X-84529030Y-84536602D01*
X-84528955Y-84536527D01*
X-84528795Y-84536377D02*
X-84528495Y-84536377D01*
X-84528570Y-84536602D02*
X-84528570Y-84536152D01*
X-84528795Y-84536377D01*
X-84528955Y-84536227D02*
X-84529030Y-84536152D01*
X-84529180Y-84536152D01*
X-84529255Y-84536227D01*
X-84529255Y-84536527D01*
X-84527757Y-84536573D02*
X-84527757Y-84536873D01*
X-84524829Y-84530493D02*
X-84524754Y-84530493D01*
X-84524679Y-84530417D01*
X-84524679Y-84530042D01*
X-84524754Y-84530042D02*
X-84524604Y-84530042D01*
X-84524444Y-84530042D02*
X-84524219Y-84530042D01*
X-84524144Y-84530117D01*
X-84524144Y-84530267D01*
X-84524219Y-84530342D01*
X-84524444Y-84530342D01*
X-84524444Y-84530493D02*
X-84524444Y-84530042D01*
X-84524829Y-84530493D02*
X-84524905Y-84530417D01*
X-84523984Y-84530493D02*
X-84523684Y-84530192D01*
X-84523684Y-84530117D01*
X-84523759Y-84530042D01*
X-84523909Y-84530042D01*
X-84523984Y-84530117D01*
X-84523984Y-84530493D02*
X-84523684Y-84530493D01*
X-84529484Y-84523341D02*
X-84529484Y-84523141D01*
X-84529234Y-84523141D01*
X-84529234Y-84522141D01*
X-84529484Y-84522141D01*
X-84529734Y-84522141D01*
X-84529734Y-84523141D01*
X-84529484Y-84523141D01*
X-84529909Y-84523116D02*
X-84530360Y-84523116D01*
X-84530360Y-84522891D01*
X-84530285Y-84522816D01*
X-84530134Y-84522816D01*
X-84530059Y-84522891D01*
X-84530059Y-84523116D01*
X-84530059Y-84522966D02*
X-84529909Y-84522816D01*
X-84530134Y-84522656D02*
X-84530134Y-84522356D01*
X-84529909Y-84522431D02*
X-84530360Y-84522431D01*
X-84530134Y-84522656D01*
X-84529484Y-84522141D02*
X-84529484Y-84521941D01*
X-84531280Y-84524123D02*
X-84531430Y-84524123D01*
X-84531505Y-84524198D01*
X-84531665Y-84524198D02*
X-84531740Y-84524123D01*
X-84531890Y-84524123D01*
X-84531965Y-84524198D01*
X-84531965Y-84524498D01*
X-84531890Y-84524573D01*
X-84531740Y-84524573D01*
X-84531665Y-84524498D01*
X-84531505Y-84524573D02*
X-84531204Y-84524273D01*
X-84531204Y-84524198D01*
X-84531280Y-84524123D01*
X-84531204Y-84524573D02*
X-84531505Y-84524573D01*
X-84532545Y-84524284D02*
X-84532545Y-84523084D01*
X-84532745Y-84523084D01*
X-84532745Y-84524284D01*
X-84532545Y-84524284D01*
X-84532895Y-84524234D02*
X-84533195Y-84524234D01*
X-84533045Y-84524084D02*
X-84533045Y-84524384D01*
X-84534058Y-84523923D02*
X-84534508Y-84523923D01*
X-84534508Y-84523698D01*
X-84534433Y-84523623D01*
X-84534283Y-84523623D01*
X-84534208Y-84523698D01*
X-84534208Y-84523923D01*
X-84534208Y-84523773D02*
X-84534058Y-84523623D01*
X-84534133Y-84523463D02*
X-84534058Y-84523388D01*
X-84534058Y-84523238D01*
X-84534133Y-84523163D01*
X-84534208Y-84523163D01*
X-84534283Y-84523238D01*
X-84534283Y-84523313D01*
X-84534283Y-84523238D02*
X-84534358Y-84523163D01*
X-84534433Y-84523163D01*
X-84534508Y-84523238D01*
X-84534508Y-84523388D01*
X-84534433Y-84523463D01*
X-84534683Y-84523027D02*
X-84534933Y-84523027D01*
X-84535183Y-84523027D01*
X-84535183Y-84524027D01*
X-84534933Y-84524027D01*
X-84534683Y-84524027D01*
X-84534683Y-84523027D01*
X-84534933Y-84523027D02*
X-84534933Y-84522827D01*
X-84534933Y-84524027D02*
X-84534933Y-84524227D01*
X-84537468Y-84522186D02*
X-84537768Y-84522186D01*
X-84537618Y-84522186D02*
X-84537618Y-84521736D01*
X-84537768Y-84521886D01*
X-84537928Y-84521811D02*
X-84538003Y-84521736D01*
X-84538229Y-84521736D01*
X-84538229Y-84522186D01*
X-84538229Y-84522036D02*
X-84538003Y-84522036D01*
X-84537928Y-84521961D01*
X-84537928Y-84521811D01*
X-84538389Y-84521736D02*
X-84538539Y-84521736D01*
X-84538464Y-84521736D02*
X-84538464Y-84522111D01*
X-84538539Y-84522186D01*
X-84538614Y-84522186D01*
X-84538689Y-84522111D01*
D14*
X-84533796Y-84522663D02*
X-84533796Y-84520734D01*
X-84531087Y-84520734D01*
X-84531087Y-84520998D01*
X-84531342Y-84520998D01*
X-84531342Y-84522398D01*
X-84531087Y-84522398D01*
X-84531087Y-84522663D01*
X-84533796Y-84522663D01*
D15*
X-84533983Y-84521226D02*
X-84534290Y-84521226D01*
X-84533983Y-84520919D01*
X-84533983Y-84520842D01*
X-84534060Y-84520765D01*
X-84534213Y-84520765D01*
X-84534290Y-84520842D01*
X-84534444Y-84520765D02*
X-84534750Y-84521226D01*
X-84534444Y-84521226D02*
X-84534750Y-84520765D01*
D16*
X-84532295Y-84523684D03*
X-84536494Y-84533991D03*
X-84524259Y-84538137D03*
D17*
X-84527757Y-84536923D03*
X-84529153Y-84533472D03*
X-84528764Y-84526942D03*
M02*
