G75*
G70*
%OFA0B0*%
%FSLAX24Y24*%
%IPPOS*%
%LPD*%
%AMOC8*
5,1,8,0,0,1.08239X$1,22.5*
%
%ADD10O,0,0520X0,1040*%
%ADD11O,0,1040X0,0520*%
%ADD12OC8,0,0520*%
%ADD13O,0,0560X0,1120*%
%ADD14O,0,1120X0,0560*%
%ADD15C,0,0520*%
%ADD16R,0,0520X0,0520*%
%ADD17OC8,0,0630*%
%ADD18OC8,0,0500*%
%ADD19OC8,0,0790*%
%ADD20C,0,0100*%
%ADD21C,0,0400*%
D10*
X-84533840Y-84534789D03*
X-84532840Y-84534789D03*
X-84531840Y-84534789D03*
X-84530840Y-84534789D03*
X-84530840Y-84531789D03*
X-84531840Y-84531789D03*
X-84532840Y-84531789D03*
X-84533840Y-84531789D03*
X-84534165Y-84528767D03*
X-84535165Y-84528767D03*
X-84536165Y-84528767D03*
X-84537165Y-84528767D03*
X-84538165Y-84528767D03*
X-84538165Y-84525767D03*
X-84537165Y-84525767D03*
X-84536165Y-84525767D03*
X-84535165Y-84525767D03*
X-84534165Y-84525767D03*
X-84533165Y-84525767D03*
X-84532165Y-84525767D03*
X-84531165Y-84525767D03*
X-84530165Y-84525767D03*
X-84530165Y-84528767D03*
X-84531165Y-84528767D03*
X-84532165Y-84528767D03*
X-84533165Y-84528767D03*
D11*
X-84535310Y-84535307D03*
X-84535310Y-84536307D03*
X-84535310Y-84537307D03*
X-84535310Y-84538307D03*
X-84538310Y-84538307D03*
X-84538310Y-84537307D03*
X-84538310Y-84536307D03*
X-84538310Y-84535307D03*
X-84526551Y-84530688D03*
X-84526551Y-84529688D03*
X-84526551Y-84528688D03*
X-84526551Y-84527688D03*
X-84526551Y-84526688D03*
X-84526551Y-84525688D03*
X-84526551Y-84524688D03*
X-84526551Y-84523688D03*
D12*
X-84525249Y-84521311D03*
X-84525249Y-84522311D03*
X-84531264Y-84537293D03*
X-84532014Y-84537793D03*
X-84531264Y-84538293D03*
D13*
X-84537214Y-84522861D03*
X-84538214Y-84522861D03*
D14*
X-84524534Y-84531222D03*
X-84524534Y-84532222D03*
X-84524534Y-84533222D03*
X-84524534Y-84534222D03*
D15*
X-84532192Y-84522198D03*
X-84532692Y-84521198D03*
X-84533192Y-84522198D03*
X-84531692Y-84521198D03*
D16*
X-84536158Y-84524295D03*
X-84537142Y-84524295D03*
X-84538126Y-84524295D03*
D17*
X-84534933Y-84524527D03*
X-84534933Y-84522527D03*
X-84529484Y-84521641D03*
X-84529484Y-84523641D03*
X-84532172Y-84530073D03*
X-84531167Y-84530125D03*
X-84529167Y-84530125D03*
X-84534172Y-84530073D03*
X-84535215Y-84530058D03*
X-84536159Y-84531432D03*
X-84537215Y-84530058D03*
X-84538159Y-84531432D03*
D18*
X-84537194Y-84533991D03*
X-84536194Y-84533991D03*
X-84529153Y-84533772D03*
X-84529153Y-84532772D03*
X-84528764Y-84527642D03*
X-84528764Y-84526642D03*
X-84531995Y-84523684D03*
X-84532995Y-84523684D03*
X-84524959Y-84538137D03*
X-84523959Y-84538137D03*
D19*
X-84527757Y-84538123D03*
X-84527757Y-84536123D03*
D20*
X-84527839Y-84536157D01*
X-84524839Y-84533157D01*
X-84524534Y-84533222D01*
X-84524534Y-84532222D02*
X-84524839Y-84532157D01*
X-84525839Y-84532157D01*
X-84529339Y-84535657D01*
X-84532339Y-84535657D01*
X-84532839Y-84535157D01*
X-84532840Y-84534789D01*
X-84533839Y-84536157D02*
X-84529339Y-84536157D01*
X-84527839Y-84534657D01*
X-84527839Y-84536157D02*
X-84525839Y-84536157D01*
X-84525339Y-84536657D01*
X-84531839Y-84536657D01*
X-84531839Y-84537657D01*
X-84532014Y-84537793D01*
X-84531264Y-84537293D02*
X-84531339Y-84537157D01*
X-84525839Y-84537157D01*
X-84524839Y-84538157D01*
X-84524959Y-84538137D01*
X-84523959Y-84538137D02*
X-84523839Y-84538157D01*
X-84525339Y-84536657D01*
X-84526839Y-84538657D02*
X-84527339Y-84539157D01*
X-84538839Y-84539157D01*
X-84539339Y-84538657D01*
X-84539339Y-84531657D01*
X-84538339Y-84531657D01*
X-84538159Y-84531432D01*
X-84537839Y-84532157D02*
X-84536839Y-84531157D01*
X-84536839Y-84530657D01*
X-84536339Y-84530157D01*
X-84536339Y-84529157D01*
X-84536165Y-84528767D01*
X-84537165Y-84528767D02*
X-84537339Y-84528657D01*
X-84535839Y-84527157D01*
X-84538839Y-84527157D01*
X-84538839Y-84523657D01*
X-84538339Y-84523157D01*
X-84538214Y-84522861D01*
X-84537339Y-84522657D02*
X-84537214Y-84522861D01*
X-84537339Y-84523157D01*
X-84528839Y-84523157D01*
X-84528839Y-84522657D02*
X-84527339Y-84524157D01*
X-84525839Y-84524157D01*
X-84525339Y-84524657D01*
X-84525339Y-84528657D01*
X-84526339Y-84528657D01*
X-84526551Y-84528688D01*
X-84525839Y-84528157D02*
X-84527339Y-84528157D01*
X-84527339Y-84529157D01*
X-84523685Y-84529186D01*
X-84523685Y-84531686D01*
X-84530839Y-84531657D01*
X-84530840Y-84531789D01*
X-84529839Y-84531157D02*
X-84524839Y-84531157D01*
X-84524534Y-84531222D01*
X-84526551Y-84530688D02*
X-84526839Y-84530657D01*
X-84527339Y-84530157D01*
X-84529339Y-84530157D01*
X-84529167Y-84530125D01*
X-84529839Y-84530157D02*
X-84529839Y-84529657D01*
X-84529339Y-84529157D01*
X-84529339Y-84527657D01*
X-84529839Y-84527657D01*
X-84529839Y-84526657D02*
X-84528839Y-84525657D01*
X-84526839Y-84525657D01*
X-84526551Y-84525688D01*
X-84525839Y-84525157D02*
X-84529839Y-84525157D01*
X-84530339Y-84525657D01*
X-84530165Y-84525767D01*
X-84529839Y-84526657D02*
X-84533839Y-84526657D01*
X-84534339Y-84526157D01*
X-84534165Y-84525767D01*
X-84533339Y-84525657D02*
X-84533165Y-84525767D01*
X-84533339Y-84525657D02*
X-84532339Y-84524657D01*
X-84527839Y-84524657D01*
X-84529339Y-84523657D02*
X-84529484Y-84523641D01*
X-84529339Y-84523657D02*
X-84529839Y-84524157D01*
X-84532339Y-84524157D01*
X-84532839Y-84523657D01*
X-84532995Y-84523684D01*
X-84532839Y-84522657D02*
X-84528839Y-84522657D01*
X-84529339Y-84521657D02*
X-84529484Y-84521641D01*
X-84529339Y-84521657D02*
X-84531339Y-84521657D01*
X-84531839Y-84521157D01*
X-84531692Y-84521198D01*
X-84532192Y-84522198D02*
X-84532339Y-84522157D01*
X-84532839Y-84521657D01*
X-84536339Y-84521657D01*
X-84537339Y-84522657D01*
X-84537339Y-84524157D02*
X-84537142Y-84524295D01*
X-84537339Y-84524157D02*
X-84537339Y-84524657D01*
X-84538339Y-84525657D01*
X-84538165Y-84525767D01*
X-84535839Y-84527157D02*
X-84527839Y-84527157D01*
X-84527339Y-84527157D02*
X-84527839Y-84526657D01*
X-84528839Y-84526657D01*
X-84528764Y-84526642D01*
X-84527339Y-84527157D02*
X-84527339Y-84527657D01*
X-84527839Y-84528157D01*
X-84527839Y-84529657D01*
X-84526839Y-84529657D01*
X-84526551Y-84529688D01*
X-84525839Y-84528157D02*
X-84525839Y-84525157D01*
X-84525249Y-84522311D02*
X-84525339Y-84522157D01*
X-84532339Y-84522157D01*
X-84532839Y-84522657D02*
X-84533339Y-84522157D01*
X-84533192Y-84522198D01*
X-84533165Y-84528767D02*
X-84533339Y-84529157D01*
X-84532339Y-84530157D01*
X-84532172Y-84530073D01*
X-84532839Y-84530657D02*
X-84530339Y-84530657D01*
X-84529839Y-84530157D01*
X-84529339Y-84532657D02*
X-84529153Y-84532772D01*
X-84529339Y-84532657D02*
X-84532339Y-84532657D01*
X-84535339Y-84532657D01*
X-84536339Y-84531657D01*
X-84536159Y-84531432D01*
X-84536339Y-84531657D02*
X-84535339Y-84531657D01*
X-84535339Y-84530157D01*
X-84535215Y-84530058D01*
X-84533839Y-84531657D02*
X-84533840Y-84531789D01*
X-84533839Y-84531657D02*
X-84532839Y-84530657D01*
X-84532840Y-84531789D02*
X-84532839Y-84532157D01*
X-84532339Y-84532657D01*
X-84534339Y-84534157D02*
X-84534839Y-84534657D01*
X-84536339Y-84534657D01*
X-84537839Y-84536157D01*
X-84538310Y-84536307D01*
X-84537839Y-84534657D02*
X-84537839Y-84532157D01*
X-84536194Y-84533991D02*
X-84536339Y-84534157D01*
X-84535839Y-84533657D01*
X-84529339Y-84533657D01*
X-84529153Y-84533772D01*
X-84533839Y-84536157D02*
X-84534839Y-84537157D01*
X-84535310Y-84537307D01*
X-84537339Y-84534657D02*
X-84537839Y-84534657D01*
D21*
X-84537339Y-84534657D03*
X-84534339Y-84534157D03*
X-84529839Y-84531157D03*
X-84527839Y-84534657D03*
X-84526839Y-84538657D03*
X-84529839Y-84527657D03*
X-84527839Y-84527157D03*
X-84527839Y-84524657D03*
X-84528839Y-84523157D03*
M02*
