%
M48
M72
T01C0,0320
T02C0,0360
T03C0,0240
%
T01
X-8452525Y-8452131
X-8452525Y-8452231
X-8452655Y-8452369
X-8452655Y-8452469
X-8452655Y-8452569
X-8452655Y-8452669
X-8452655Y-8452769
X-8452655Y-8452869
X-8452655Y-8452969
X-8452655Y-8453069
X-8452917Y-8453013
X-8453017Y-8452877
X-8453117Y-8452877
X-8453217Y-8452877
X-8453317Y-8452877
X-8453417Y-8452877
X-8453517Y-8452877
X-8453617Y-8452877
X-8453717Y-8452877
X-8453817Y-8452877
X-8453722Y-8453006
X-8453816Y-8453143
X-8453616Y-8453143
X-8453522Y-8453006
X-8453417Y-8453007
X-8453384Y-8453179
X-8453284Y-8453179
X-8453184Y-8453179
X-8453084Y-8453179
X-8453117Y-8453013
X-8453217Y-8453007
X-8453217Y-8452577
X-8453117Y-8452577
X-8453017Y-8452577
X-8452948Y-8452364
X-8452948Y-8452164
X-8453169Y-8452120
X-8453219Y-8452220
X-8453269Y-8452120
X-8453319Y-8452220
X-8453493Y-8452253
X-8453616Y-8452430
X-8453714Y-8452430
X-8453813Y-8452430
X-8453817Y-8452577
X-8453717Y-8452577
X-8453617Y-8452577
X-8453517Y-8452577
X-8453417Y-8452577
X-8453317Y-8452577
X-8453493Y-8452453
X-8453384Y-8453479
X-8453284Y-8453479
X-8453184Y-8453479
X-8453084Y-8453479
X-8453126Y-8453729
X-8453201Y-8453779
X-8453126Y-8453829
X-8452776Y-8453812
X-8452776Y-8453612
X-8453531Y-8453631
X-8453531Y-8453731
X-8453531Y-8453831
X-8453531Y-8453531
X-8453831Y-8453531
X-8453831Y-8453631
X-8453831Y-8453731
X-8453831Y-8453831
T02
X-8453821Y-8452286
X-8453721Y-8452286
X-8452453Y-8453122
X-8452453Y-8453222
X-8452453Y-8453322
X-8452453Y-8453422
T03
X-8452784Y-8453466
X-8452915Y-8453377
X-8452915Y-8453277
X-8452984Y-8453116
X-8452984Y-8452766
X-8452876Y-8452764
X-8452876Y-8452664
X-8452784Y-8452716
X-8452784Y-8452466
X-8452884Y-8452316
X-8453200Y-8452368
X-8453300Y-8452368
X-8453619Y-8453399
X-8453719Y-8453399
X-8453734Y-8453466
X-8453434Y-8453416
X-8452684Y-8453866
X-8452496Y-8453814
X-8452396Y-8453814
M30
